<?xml version="1.0" encoding="UTF-8"?>
<!-- Generator: Adobe Illustrator 22.1.0, SVG Export Plug-In . SVG Version: 6.00 Build 0)  -->
<svg version="1.1" id="Ebene_1" xmlns="http://www.w3.org/2000/svg" xmlns:xlink="http://www.w3.org/1999/xlink" x="0px" y="0px" viewBox="0 0 360 98.1" style="enable-background:new 0 0 360 98.1;" xml:space="preserve">
<style type="text/css">
	.st0{fill:#00957E;}
	.st1{fill:#FFFFFF;}
	.st2{fill:#000000;}
</style>
<g>
	<g>
		<g>
			<path class="st0" d="M0,58.6C13.9,51.5,34.2,39.9,58.4,23v-5.7C37.1,31.3,15.5,42.4,0,49.8V58.6z"/>
			<path class="st0" d="M0,41.7c15.5-6.3,37.1-16,58.4-28.7v-2.8c-20,9.9-40.8,16.1-58.4,20V41.7z"/>
			<path class="st0" d="M58.4,58.7V30.1C45.1,41.3,31.9,51,20.9,58.7H58.4z"/>
			<path class="st0" d="M13.4,58.7c10.5-6.2,23.2-14.4,35.9-23.9c3-2.2,6-4.5,9-6.9v-3.5c-18.8,14.1-38,25.8-52.9,34.3H13.4z"/>
			<path class="st0" d="M0,26.1c17.1-3,38-8.4,58.4-18.1V4.8C37.8,14,17.2,17.9,0,19.3V26.1z"/>
			<path class="st0" d="M0,0v16.3c1.3-0.1,2.6-0.2,3.9-0.3C18.1,15,37.5,12.5,58.4,3.4V0H0z"/>
			<path class="st1" d="M0,16.3v3C17.2,17.9,37.8,14,58.4,4.8V3.4C37.5,12.5,18.1,15,3.9,16.1C2.6,16.2,1.3,16.3,0,16.3"/>
			<path class="st1" d="M0,30.2c17.6-3.9,38.4-10.1,58.4-20V8C38,17.7,17.1,23.1,0,26.1V30.2z"/>
			<path class="st1" d="M0,49.8c15.5-7.4,37.1-18.5,58.4-32.5V13C37.1,25.7,15.5,35.4,0,41.7V49.8z"/>
			<path class="st1" d="M13.4,58.7h7.5C31.9,51,45.1,41.3,58.4,30.1v-2.2c-3.1,2.4-6.1,4.6-9,6.9C36.6,44.3,23.9,52.4,13.4,58.7"/>
			<path class="st1" d="M0,58.7h5.4c15-8.5,34.1-20.2,52.9-34.3V23C34.2,39.9,13.9,51.5,0,58.7L0,58.7z"/>
			<path class="st2" d="M343,58.6h7.5V48c0-4.1,0-11.8,6.1-11.8c1.3,0,2.7,0.2,3.4,0.6v-7.6c-0.8-0.2-1.6-0.2-2.3-0.2c-4.5,0-7.6,4.5-7.9,7.2     h-0.1v-6.6H343V58.6z M335.5,50.9c-2.8,1.6-5.9,2.9-9.6,2.9c-4.6,0-7.9-2.6-8.2-7.3h19.9c0-10.1-3-17.4-13.7-17.4     c-9,0-13.4,6.9-13.4,15.2c0,9.5,5.5,15,15.1,15c4,0,7.2-0.8,9.9-2.3V50.9z M317.7,41.4c0.3-3.9,2.5-6.8,6.7-6.8     c4.2,0,5.9,3.1,6.1,6.8H317.7z M293.7,58.6h7.5V35.3h6.6v-5.5h-6.6v-3.6c0-2.2,0.8-4.4,3.3-4.4c1.6,0,2.6,0.6,3.2,1l0.6-6.2     c-1.5-0.3-3.6-0.6-5.5-0.6c-5.9,0-9.2,4-9.2,9.8v4h-5.5v5.5h5.5V58.6z M263.8,43.5c0-4.3,2.4-8.6,7.2-8.6c4.9,0,7.3,4.1,7.3,8.6     c0,4.8-1.5,10-7.3,10C265.4,53.5,263.8,48.3,263.8,43.5 M256,44.4c0,8.3,5.6,14.9,15.1,14.9c9.6,0,15.1-6.6,15.1-14.9     c0-9.5-6.6-15.3-15.1-15.3C262.6,29.1,256,34.9,256,44.4 M224.7,58.6h7.5V44.5c0-3.7,1.2-9.6,6.6-9.6c4.8,0,4.9,4.8,4.9,8.3v15.4     h7.5V40.4c0-6.5-3-11.3-9.8-11.3c-3.9,0-7.2,1.8-9.1,4.6h-0.1V16.6h-7.5V58.6z M190.5,58.6h7.5V44.5c0-3.7,1.2-9.6,6.6-9.6     c4.8,0,4.9,4.8,4.9,8.3v15.4h7.5V40.4c0-6.5-3-11.3-9.8-11.3c-3.9,0-7.1,1.3-9.5,4.6h-0.1v-3.9h-7.1V58.6z M182.8,29.8h-7.5v14.1     c0,3.7-1.2,9.6-6.6,9.6c-4.8,0-4.9-4.8-4.9-8.3V29.8h-7.5V48c0,6.5,3,11.3,9.8,11.3c3.9,0,7.2-1.8,9.5-4.6h0.1v3.9h7.1V29.8z      M131.5,50.3c0-4.4,5-5,8.4-5h3.3c0,2.2-0.3,4.3-1.6,5.9c-1.2,1.6-3,2.6-5.3,2.6C133.6,53.8,131.5,52.8,131.5,50.3 M127.7,37.7     c2.5-1.9,5.7-3.1,8.9-3.1c4.4,0,6.5,1.6,6.5,6.2H139c-3.1,0-6.8,0.3-9.7,1.7c-2.9,1.4-4.9,3.9-4.9,8.2c0,5.5,5,8.6,10.1,8.6     c3.4,0,7.2-1.8,8.9-5h0.1c0.1,0.9,0.1,2.8,0.3,4.3h6.6c-0.2-2.2-0.3-4.3-0.3-6.4c-0.1-2.1-0.1-4.3-0.1-7.2v-3.7     c0-8.5-3.6-12.2-12.4-12.2c-3.2,0-7.1,0.8-10,2.2L127.7,37.7z M105.1,58.6h7.5V48c0-4.1,0-11.8,6.1-11.8c1.3,0,2.7,0.2,3.4,0.6     v-7.6c-0.8-0.2-1.6-0.2-2.3-0.2c-4.5,0-7.6,4.5-7.9,7.2h-0.1v-6.6h-6.7V58.6z M78,58.6h7.8V41.5h13.2v-6.2H85.9v-9.6h13.9v-6.2     H78V58.6z"/>
			<rect class="st2" x="325.8" y="78.6" width="3.8" height="19.6"/>
			<polygon class="st2" points="335,78.6 338.8,78.6 338.8,95.1 346.2,95.1 346.2,98.1 335,98.1    "/>
			<polygon class="st2" points="350.8,81.6 345.4,81.6 345.4,78.6 360,78.6 360,81.6 354.6,81.6 354.6,98.1 350.8,98.1    "/>
		</g>
	</g>
</g>
</svg>