<?xml version="1.0" standalone="no"?>
<!DOCTYPE svg PUBLIC "-//W3C//DTD SVG 20010904//EN"
 "http://www.w3.org/TR/2001/REC-SVG-20010904/DTD/svg10.dtd">
<svg version="1.0" xmlns="http://www.w3.org/2000/svg"
 width="1800.000000pt" height="289.000000pt" viewBox="100 60 500.000000 165.000000"
 preserveAspectRatio="xMidYMid meet">

<g transform="translate(0.000000,289.000000) scale(0.100000,-0.100000)"
fill="#4388d2" stroke="none">
<path d="M892 2100 c-209 -55 -379 -193 -472 -385 -53 -108 -73 -197 -73 -325
0 -124 18 -201 73 -315 122 -253 366 -406 650 -407 215 -2 382 72 535 234 260
277 260 705 0 986 -101 109 -237 188 -376 217 -98 21 -247 18 -337 -5z m343
-10 c137 -37 247 -101 345 -199 60 -60 86 -96 123 -171 61 -124 80 -200 80
-325 0 -276 -150 -518 -396 -639 -210 -103 -419 -102 -633 4 -171 84 -295 227
-361 416 -24 71 -27 93 -27 214 -1 154 12 207 75 331 128 247 385 398 659 384
52 -2 113 -9 135 -15z"/>
<path d="M983 1965 c11 -23 27 -34 27 -17 -1 9 -26 42 -33 42 -3 0 0 -11 6
-25z"/>
<path d="M1062 1965 c0 -16 2 -22 5 -12 2 9 2 23 0 30 -3 6 -5 -1 -5 -18z"/>
<path d="M1118 1970 c-7 -24 -3 -38 8 -28 3 4 4 17 2 30 l-3 23 -7 -25z"/>
<path d="M914 1964 c3 -9 6 -20 6 -25 0 -5 4 -9 9 -9 4 0 6 11 3 25 -2 14 -9
25 -14 25 -6 0 -7 -7 -4 -16z"/>
<path d="M1177 1973 c-10 -9 -9 -33 1 -33 4 0 8 9 9 20 2 21 0 24 -10 13z"/>
<path d="M1242 1945 c-6 -14 -7 -25 -2 -25 9 0 25 39 18 46 -3 2 -10 -7 -16
-21z"/>
<path d="M880 1945 c6 -8 8 -20 4 -27 -5 -10 -4 -10 6 -1 14 13 7 43 -11 43
-8 0 -8 -4 1 -15z"/>
<path d="M840 1930 c0 -11 4 -20 9 -20 5 0 7 9 4 20 -3 11 -7 20 -9 20 -2 0
-4 -9 -4 -20z"/>
<path d="M1277 1930 c-3 -11 -2 -20 3 -20 4 0 10 9 13 20 3 11 2 20 -3 20 -4
0 -10 -9 -13 -20z"/>
<path d="M805 1920 c3 -5 8 -10 11 -10 2 0 4 5 4 10 0 6 -5 10 -11 10 -5 0 -7
-4 -4 -10z"/>
<path d="M1328 1918 c7 -7 12 -20 12 -31 0 -10 4 -16 10 -12 12 7 -9 55 -24
55 -6 0 -5 -5 2 -12z"/>
<path d="M780 1914 c0 -5 7 -19 15 -30 8 -10 15 -14 15 -8 0 5 -7 19 -15 30
-8 10 -15 14 -15 8z"/>
<path d="M1381 1879 c-7 -12 -10 -23 -8 -26 3 -3 11 5 17 17 6 12 10 23 8 25
-2 2 -10 -5 -17 -16z"/>
<path d="M958 1864 c-153 -36 -282 -152 -342 -304 -9 -25 -20 -79 -23 -121 -6
-78 3 -173 15 -165 9 5 95 13 229 22 l102 7 108 119 c192 212 202 223 203 215
0 -4 -55 -68 -122 -143 -68 -75 -136 -152 -151 -170 l-29 -34 17 -53 c10 -28
21 -56 25 -60 4 -5 71 93 150 218 142 224 143 225 164 208 21 -18 21 -18 3 4
-18 21 -18 22 17 77 38 60 43 71 24 60 -7 -4 -8 -3 -4 4 14 22 34 12 82 -40
167 -186 157 -473 -23 -650 -152 -148 -363 -179 -555 -82 -75 38 -157 125
-201 213 -20 40 -37 68 -37 62 0 -24 53 -120 92 -168 145 -175 398 -224 602
-115 68 36 165 135 199 205 16 31 36 93 45 136 14 68 14 91 4 153 -26 157
-124 294 -259 362 -40 20 -80 36 -90 36 -10 -1 9 -12 42 -26 33 -13 71 -33 83
-43 l24 -18 -70 -47 c-39 -27 -75 -45 -81 -41 -6 3 -10 1 -9 -5 3 -9 -362
-255 -412 -278 -8 -4 -48 -29 -88 -55 -40 -27 -77 -45 -83 -41 -8 5 -10 39 -6
110 4 91 9 110 41 177 87 182 275 290 476 274 41 -3 54 -2 35 3 -47 12 -134
10 -197 -6z m337 -182 l-39 -37 35 41 c19 22 36 39 39 37 2 -2 -13 -20 -35
-41z"/>
<path d="M1415 1859 c-4 -6 -5 -12 -2 -15 2 -3 7 2 10 11 7 17 1 20 -8 4z"/>
<path d="M673 1838 c-2 -5 10 -8 26 -8 17 0 31 3 31 8 0 4 -12 7 -26 7 -14 0
-28 -3 -31 -7z"/>
<path d="M1490 1811 c0 -7 -4 -10 -8 -7 -5 3 -8 -4 -7 -14 2 -31 12 -33 19 -4
4 14 5 29 1 32 -3 3 -5 0 -5 -7z"/>
<path d="M647 1793 c5 -13 3 -15 -12 -9 -18 7 -18 6 0 -14 22 -24 29 -26 21
-5 -3 9 0 15 10 15 14 0 14 2 0 15 -19 20 -27 19 -19 -2z"/>
<path d="M1510 1755 c-20 -24 -6 -28 15 -5 10 11 13 20 8 20 -6 0 -16 -7 -23
-15z"/>
<path d="M584 1749 c-3 -6 3 -21 15 -32 12 -13 21 -16 21 -9 0 7 -7 15 -16 19
-8 3 -13 12 -10 19 6 17 0 18 -10 3z"/>
<path d="M551 1692 c-7 -13 -6 -19 2 -19 7 0 21 -4 32 -8 l20 -7 -20 17 c-11
9 -19 21 -17 26 4 16 -7 10 -17 -9z"/>
<path d="M1043 1703 c15 -2 39 -2 55 0 15 2 2 4 -28 4 -30 0 -43 -2 -27 -4z"/>
<path d="M1575 1668 l-20 -21 23 12 c12 6 22 16 22 21 0 13 -2 12 -25 -12z"/>
<path d="M842 1606 c-22 -24 -45 -54 -51 -67 -11 -24 -11 -24 6 1 10 14 35 44
57 68 21 23 36 42 34 42 -3 0 -24 -20 -46 -44z"/>
<path d="M525 1620 c-7 -12 2 -12 30 0 19 8 19 9 -2 9 -12 1 -25 -3 -28 -9z"/>
<path d="M1613 1580 c-6 -17 -8 -30 -3 -30 8 0 24 50 18 56 -2 2 -9 -10 -15
-26z"/>
<path d="M510 1556 c14 -8 28 -12 33 -9 11 7 7 9 -28 17 l-30 6 25 -14z"/>
<path d="M1341 1550 c14 -31 19 -36 19 -24 0 6 -7 19 -16 30 -14 18 -14 18 -3
-6z"/>
<path d="M1633 1533 c-13 -2 -23 -8 -23 -12 0 -5 11 -6 25 -3 14 2 25 8 25 13
0 5 -1 8 -2 8 -2 -1 -13 -4 -25 -6z"/>
<path d="M503 1502 c-14 -2 -23 -10 -23 -22 0 -22 35 -16 45 7 7 19 6 20 -22
15z"/>
<path d="M1630 1480 c-8 -5 -11 -12 -7 -17 5 -4 11 -3 15 3 4 6 14 14 22 17
13 5 13 5 0 6 -8 0 -22 -3 -30 -9z"/>
<path d="M762 1445 c0 -16 2 -22 5 -12 2 9 2 23 0 30 -3 6 -5 -1 -5 -18z"/>
<path d="M1380 1402 c0 -68 -82 -171 -127 -159 -14 4 -13 5 4 6 31 1 43 49 18
68 -42 30 -70 17 -123 -56 -59 -81 -87 -102 -145 -108 -55 -6 -152 30 -191 71
-23 25 -27 26 -17 7 24 -45 104 -111 160 -132 73 -27 185 -23 249 10 105 54
168 146 179 264 3 37 3 67 -1 67 -3 0 -6 -17 -6 -38z"/>
<path d="M483 1423 c9 -2 23 -2 30 0 6 3 -1 5 -18 5 -16 0 -22 -2 -12 -5z"/>
<path d="M1640 1420 l-25 -8 28 -1 c15 -1 27 4 27 9 0 6 -1 10 -2 9 -2 -1 -14
-5 -28 -9z"/>
<path d="M470 1389 c0 -5 12 -9 27 -9 30 0 27 9 -6 15 -11 2 -21 0 -21 -6z"/>
<path d="M1620 1359 c0 -5 5 -9 11 -9 8 0 8 -4 1 -12 -8 -10 -4 -13 15 -15 19
-1 22 1 12 8 -12 7 -12 10 -1 18 10 6 7 10 -12 13 -14 3 -26 1 -26 -3z"/>
<path d="M480 1331 c0 -4 11 -6 25 -3 14 2 25 6 25 8 0 2 -11 4 -25 4 -14 0
-25 -4 -25 -9z"/>
<path d="M520 1282 c0 -6 -8 -9 -17 -6 -15 5 -16 4 -3 -5 16 -11 40 3 27 16
-4 3 -7 1 -7 -5z"/>
<path d="M1626 1275 c-16 -12 -17 -15 -4 -15 8 0 21 7 28 15 16 19 1 19 -24 0z"/>
<path d="M513 1253 c-13 -2 -23 -8 -23 -12 0 -5 11 -6 25 -3 14 2 25 8 25 13
0 5 -1 8 -2 8 -2 -1 -13 -4 -25 -6z"/>
<path d="M1610 1230 c8 -5 22 -10 30 -10 13 0 13 1 0 10 -8 5 -22 10 -30 10
-13 0 -13 -1 0 -10z"/>
<path d="M515 1210 c-8 -13 5 -13 25 0 13 8 13 10 -2 10 -9 0 -20 -4 -23 -10z"/>
<path d="M1595 1180 c27 -12 43 -12 25 0 -8 5 -22 9 -30 9 -10 0 -8 -3 5 -9z"/>
<path d="M530 1170 c-13 -8 -13 -10 2 -10 9 0 20 5 23 10 8 13 -5 13 -25 0z"/>
<path d="M565 1136 c-3 -9 -7 -23 -10 -31 -2 -8 -1 -15 4 -15 5 0 11 12 14 28
6 30 0 44 -8 18z"/>
<path d="M1556 1118 c3 -4 14 -8 24 -8 10 0 21 4 24 8 3 5 -8 9 -24 9 -16 0
-27 -4 -24 -9z"/>
<path d="M1460 1021 c0 -10 6 -22 13 -24 9 -4 8 -8 -3 -16 -8 -5 -11 -13 -6
-18 4 -4 12 1 18 11 7 13 13 15 18 7 5 -9 9 -9 18 1 7 10 5 20 -10 38 -20 24
-20 24 -14 3 5 -14 3 -23 -3 -23 -6 0 -11 6 -11 14 0 8 -4 18 -10 21 -5 3 -10
-3 -10 -14z"/>
<path d="M1145 1010 c-3 -5 1 -10 10 -10 9 0 13 5 10 10 -3 6 -8 10 -10 10 -2
0 -7 -4 -10 -10z"/>
<path d="M707 961 c3 -11 -2 -21 -11 -24 -10 -4 -16 -1 -16 9 0 12 -3 12 -13
2 -8 -6 -12 -22 -9 -35 4 -23 11 -24 76 -6 17 5 18 7 5 17 -8 6 -15 17 -16 24
-3 14 13 16 22 2 3 -5 14 -10 23 -10 10 1 3 9 -18 20 -44 24 -49 24 -43 1z"/>
<path d="M1521 951 c-6 -11 -11 -28 -10 -38 0 -13 3 -12 10 7 8 18 12 21 18
11 5 -7 11 -9 14 -4 3 4 -1 16 -8 26 -13 18 -14 18 -24 -2z"/>
<path d="M620 935 c-8 -9 -8 -15 -2 -15 12 0 26 19 19 26 -2 2 -10 -2 -17 -11z"/>
<path d="M1325 881 c16 -31 16 -34 -4 -55 -12 -12 -21 -26 -21 -32 0 -5 12 5
26 21 l25 30 -5 -30 c-5 -24 -4 -27 4 -12 6 9 10 25 8 35 -1 9 1 23 6 31 6 10
5 12 -3 7 -7 -4 -20 2 -32 16 l-20 23 16 -34z"/>
<path d="M851 859 c-17 -22 -26 -28 -35 -20 -13 11 -26 5 -26 -10 0 -5 7 -5
17 -2 12 5 14 3 8 -8 -4 -8 10 3 31 23 21 21 36 40 33 43 -3 2 -16 -9 -28 -26z"/>
<path d="M866 826 c-32 -27 -36 -34 -23 -39 10 -4 17 -1 17 5 0 7 12 22 28 34
15 12 25 25 22 28 -3 2 -23 -10 -44 -28z"/>
<path d="M1172 831 c2 -9 -5 -22 -17 -29 -19 -11 -18 -12 7 -6 26 6 27 5 18
-25 -7 -25 -6 -31 7 -31 12 0 15 8 10 40 -4 30 -1 42 10 49 12 6 10 9 -11 13
-21 4 -26 2 -24 -11z"/>
<path d="M990 831 c0 -5 8 -11 17 -13 14 -2 10 -11 -20 -41 -40 -40 -35 -47
15 -21 19 10 27 19 19 23 -8 5 -7 12 4 27 20 27 19 34 -10 34 -14 0 -25 -4
-25 -9z"/>
<path d="M765 810 c-3 -5 1 -10 10 -10 9 0 13 5 10 10 -3 6 -8 10 -10 10 -2 0
-7 -4 -10 -10z"/>
<path d="M5668 2089 c-15 -8 -18 -25 -18 -95 0 -72 -3 -85 -17 -90 -10 -3 -28
-11 -40 -16 -37 -18 -53 -4 -53 46 0 47 -17 64 -48 47 -12 -7 -15 -22 -13 -66
3 -63 -5 -75 -51 -75 -23 0 -28 -5 -28 -24 0 -25 16 -36 54 -36 12 0 31 -6 41
-14 19 -14 19 -15 2 -34 -28 -31 -154 -84 -218 -91 -32 -4 -61 -10 -65 -13 -7
-7 14 -50 30 -60 25 -17 94 -8 130 17 20 14 41 25 45 25 5 0 16 -11 25 -25 9
-14 21 -25 26 -25 6 0 30 18 54 40 49 45 56 48 56 21 0 -19 -25 -42 -89 -84
-48 -31 -61 -55 -38 -71 23 -17 22 -26 -8 -66 -35 -48 -32 -60 15 -60 22 0 40
-4 40 -10 0 -13 -38 -36 -72 -44 -15 -3 -54 -32 -87 -64 -48 -45 -61 -64 -61
-87 1 -79 53 -73 96 12 16 32 41 64 55 72 25 14 29 13 59 -12 39 -33 55 -34
76 -2 14 22 15 33 4 91 -12 64 -12 66 14 93 20 20 26 37 26 70 0 23 7 55 14
70 8 15 13 37 10 48 -3 11 4 38 16 60 37 71 -3 101 -71 52 -29 -20 -59 -25
-59 -10 0 16 63 57 106 69 23 7 69 12 103 12 62 0 62 0 59 28 -3 25 -7 27 -55
30 -48 3 -53 5 -53 27 0 13 9 46 19 72 10 27 22 74 26 105 6 50 5 57 -13 67
-24 13 -22 13 -44 0z"/>
<path d="M6446 2061 c-3 -4 2 -48 11 -97 10 -53 17 -142 17 -222 1 -150 5
-142 -84 -168 -69 -21 -350 -121 -370 -133 -8 -4 -16 -19 -18 -33 -2 -20 5
-30 31 -47 19 -11 40 -21 47 -21 7 0 78 32 159 71 174 85 201 95 201 71 0 -34
-48 -118 -86 -152 -21 -19 -69 -55 -107 -79 -68 -44 -85 -65 -44 -57 103 21
139 32 185 53 61 29 84 64 142 223 35 94 35 95 88 122 140 71 179 106 150 133
-20 20 -61 8 -107 -31 -49 -42 -88 -45 -97 -8 -4 14 -2 57 5 94 6 38 11 98 11
133 l0 65 -51 46 c-50 45 -72 55 -83 37z"/>
<path d="M3597 2053 c-2 -5 -5 -34 -5 -65 -1 -32 -8 -79 -17 -105 -15 -47 -31
-148 -63 -393 -18 -129 -24 -150 -47 -150 -7 0 -44 -19 -81 -42 -38 -23 -91
-50 -119 -61 -27 -10 -56 -24 -63 -30 -25 -20 -9 -60 35 -91 37 -26 46 -28 68
-18 21 10 115 127 150 187 10 16 15 17 48 6 60 -20 63 -15 71 110 9 157 48
324 99 429 24 48 40 96 39 110 -5 35 -70 120 -92 120 -10 0 -21 -3 -23 -7z"/>
<path d="M7566 1995 c-32 -43 -56 -67 -74 -71 -89 -20 -110 -36 -78 -63 8 -7
12 -21 9 -31 -6 -22 8 -26 39 -9 28 15 35 3 12 -22 -15 -17 -26 -20 -56 -15
-41 7 -44 5 -26 -23 6 -10 8 -26 5 -35 -10 -26 -41 -15 -45 15 -4 31 -144 175
-161 165 -6 -4 -11 -17 -11 -29 0 -29 102 -255 117 -261 7 -3 26 6 42 19 16
14 37 25 46 25 10 0 33 9 51 21 29 18 35 19 40 5 3 -8 3 -20 -1 -26 -3 -5 2
-10 11 -10 16 0 16 -1 -1 -20 -27 -29 -161 -67 -255 -71 -52 -2 -53 -1 -31 29
l20 29 -21 34 c-20 33 -36 49 -50 49 -12 0 -21 -121 -9 -133 6 -6 11 -23 11
-39 0 -39 30 -51 109 -46 72 6 205 53 266 93 40 28 45 29 45 15 0 -5 -22 -26
-50 -47 -27 -20 -50 -41 -50 -45 0 -17 87 -6 127 15 48 25 93 80 93 114 0 19
-5 23 -30 23 -41 0 -38 21 7 45 60 32 89 105 98 241 l7 111 -32 7 c-18 3 -54
6 -79 6 -46 0 -48 -1 -95 -65z m76 -183 c11 -11 -11 -59 -39 -85 -19 -16 -20
-16 -31 8 -14 31 -28 32 -52 3 -17 -21 -19 -22 -26 -5 -5 13 4 29 32 58 34 36
43 40 73 35 19 -3 38 -9 43 -14z"/>
<path d="M2845 2014 c-33 -14 -100 -37 -150 -51 -339 -95 -425 -128 -425 -159
0 -18 38 -42 79 -50 24 -5 45 0 87 21 l55 28 27 -20 c21 -15 28 -32 33 -69 6
-50 -4 -144 -21 -189 -17 -46 -77 -26 -94 31 -3 11 -19 33 -36 49 -60 58 -79
-2 -35 -110 14 -33 25 -63 25 -67 0 -4 -14 -23 -31 -42 -37 -43 -90 -57 -118
-32 -10 9 -20 16 -23 16 -3 0 -8 -36 -11 -80 -6 -70 -4 -85 18 -134 26 -60 53
-81 91 -72 20 5 24 13 24 44 0 21 -11 56 -25 81 -14 23 -25 49 -25 56 0 6 17
19 38 28 20 9 44 22 53 28 13 10 24 9 52 -4 19 -9 39 -17 45 -17 5 0 13 -21
17 -46 l7 -46 64 7 65 7 -7 -26 c-4 -16 -2 -26 5 -26 15 0 100 40 106 51 3 4
-2 25 -10 47 -16 39 -16 40 9 65 13 14 46 67 71 118 26 52 65 121 87 153 34
50 39 64 34 95 -3 19 -14 47 -24 61 -32 42 -56 37 -118 -24 -31 -31 -63 -56
-70 -56 -8 0 -15 18 -20 45 -8 54 -41 85 -89 85 -18 0 -38 7 -45 15 -11 13 -4
19 42 39 87 38 134 49 157 34 15 -9 28 -9 63 1 88 27 158 81 158 123 0 27 -62
23 -135 -8z m-83 -413 c-6 -41 -97 -206 -113 -206 -19 0 -24 51 -6 78 7 12 20
44 27 71 10 36 21 53 44 67 43 26 53 24 48 -10z"/>
<path d="M3889 1917 c-9 -7 -32 -68 -52 -137 -36 -122 -38 -126 -89 -172 l-53
-46 28 -7 c15 -4 27 -10 27 -14 0 -3 -22 -44 -50 -91 -51 -87 -61 -128 -36
-150 8 -6 48 -14 89 -17 92 -7 117 4 117 52 0 35 -1 36 -64 50 -25 5 -28 9
-22 36 3 16 24 61 46 98 37 62 45 70 84 80 24 6 46 18 50 27 7 19 -8 50 -31
63 -15 8 -14 15 15 78 18 38 32 81 32 94 0 55 -51 86 -91 56z"/>
<path d="M4546 1880 c-22 -11 -30 -21 -28 -35 10 -55 72 -80 171 -70 42 4 71
3 75 -3 3 -5 -9 -31 -27 -56 -17 -25 -61 -86 -95 -136 -35 -49 -93 -121 -128
-159 -74 -79 -138 -111 -227 -111 -64 0 -99 -9 -95 -24 5 -20 127 -126 144
-126 9 0 28 7 42 15 64 35 264 119 345 145 86 28 152 63 161 87 7 16 -13 85
-28 101 -11 11 -21 8 -58 -17 -25 -17 -58 -31 -73 -31 -23 0 -25 3 -19 23 4
12 24 44 45 71 22 27 39 54 39 61 0 21 70 93 141 145 77 56 86 70 73 108 l-9
26 -209 1 c-170 1 -215 -2 -240 -15z"/>
<path d="M3321 1561 c-13 -8 -12 -15 4 -50 21 -47 15 -78 -29 -166 -14 -27
-24 -51 -22 -53 11 -11 71 35 104 81 22 28 49 61 61 71 11 11 21 31 21 46 0
22 -9 32 -49 53 -52 29 -68 32 -90 18z"/>
<path d="M7455 1436 c-27 -7 -61 -18 -75 -23 -14 -6 -65 -21 -115 -33 -93 -23
-185 -57 -185 -69 0 -4 15 -22 34 -40 38 -37 50 -36 154 11 81 36 119 37 128
4 12 -50 3 -61 -54 -64 -28 -2 -52 -7 -52 -11 0 -10 53 -51 88 -70 30 -16 98
2 107 29 3 11 -1 47 -9 81 -9 33 -14 65 -11 70 4 5 32 16 63 25 86 24 101 58
41 89 -33 18 -47 18 -114 1z"/>
<path d="M6686 1342 c-17 -28 70 -183 108 -190 24 -5 76 46 76 73 0 46 -163
150 -184 117z"/>
<path d="M5614 1309 c7 -36 42 -89 59 -89 29 1 61 48 51 75 -8 21 -56 45 -90
45 -24 0 -26 -3 -20 -31z"/>
<path d="M2413 919 c-37 -14 -56 -54 -50 -105 6 -55 25 -77 68 -77 45 0 69 32
69 92 0 72 -36 109 -87 90z m44 -21 c29 -37 23 -132 -8 -149 -32 -17 -59 21
-59 84 0 29 5 58 12 65 16 16 43 15 55 0z"/>
<path d="M2555 920 c-16 -4 -24 -8 -17 -9 10 -1 13 -21 10 -86 l-3 -85 30 1
c17 0 24 3 18 6 -15 5 -18 63 -4 63 5 0 18 -15 29 -34 11 -18 29 -36 41 -39
21 -5 29 7 11 18 -21 13 -42 67 -31 78 15 15 14 62 -1 75 -20 15 -51 20 -83
12z m65 -30 c15 -28 3 -60 -21 -60 -16 0 -19 7 -19 40 0 45 21 55 40 20z"/>
<path d="M3585 921 c-49 -5 -61 -10 -63 -25 -4 -19 -3 -19 13 -2 10 9 22 15
29 13 15 -5 20 -135 5 -153 -9 -12 -6 -14 22 -13 19 0 28 3 22 6 -16 6 -18
149 -2 158 5 4 18 0 28 -9 17 -16 18 -15 14 9 -3 14 -6 24 -7 23 0 -1 -28 -4
-61 -7z"/>
<path d="M3845 920 c-16 -4 -24 -8 -17 -9 8 -1 12 -24 12 -80 0 -54 -4 -81
-12 -84 -7 -3 1 -6 17 -6 30 -1 31 1 27 34 -5 45 13 46 35 1 16 -34 48 -53 59
-35 3 5 1 9 -4 9 -5 0 -17 16 -28 35 -14 27 -16 37 -6 47 16 16 15 63 0 76
-20 15 -51 20 -83 12z m60 -50 c0 -25 -5 -36 -17 -38 -15 -3 -18 4 -18 38 0
34 3 41 18 38 12 -2 17 -13 17 -38z"/>
<path d="M4305 920 c-16 -4 -24 -8 -17 -9 10 -1 13 -21 10 -86 l-3 -85 30 1
c17 0 24 3 18 6 -7 2 -13 18 -13 34 0 22 5 29 19 29 28 0 51 27 51 59 0 44
-39 65 -95 51z m63 -49 c2 -20 -2 -37 -9 -42 -21 -12 -29 -1 -29 42 0 33 3 40
18 37 11 -2 18 -14 20 -37z"/>
<path d="M4482 920 c-49 -20 -64 -127 -24 -163 35 -31 60 -30 92 2 47 46 38
135 -17 160 -13 6 -25 11 -26 10 -1 0 -12 -4 -25 -9z m58 -36 c16 -42 12 -100
-9 -125 l-20 -24 -21 21 c-26 25 -36 88 -21 127 14 37 57 38 71 1z"/>
<path d="M7145 921 c-20 -4 -26 -9 -17 -14 8 -5 12 -34 12 -82 0 -49 -4 -75
-12 -78 -7 -3 2 -6 20 -6 29 -1 32 1 22 18 -5 11 -10 27 -10 35 0 28 25 17 44
-18 18 -34 51 -52 62 -35 3 5 1 9 -4 9 -6 0 -19 15 -30 33 -17 29 -17 36 -6
52 38 52 -8 102 -81 86z m63 -48 c2 -23 -2 -34 -16 -42 -26 -14 -32 -5 -32 41
0 35 2 39 23 36 17 -2 23 -11 25 -35z"/>
<path d="M7563 923 c-61 -4 -63 -5 -62 -31 0 -26 1 -26 9 -4 5 12 16 22 25 22
12 0 15 -15 15 -79 0 -54 -4 -81 -12 -84 -7 -3 5 -5 27 -5 22 0 34 2 28 5 -9
3 -13 29 -13 78 0 78 13 102 37 70 12 -18 13 -17 13 8 0 15 -1 26 -2 25 -2 -1
-31 -3 -65 -5z"/>
<path d="M2185 830 c0 -83 2 -90 20 -90 15 0 16 3 7 12 -13 13 -17 118 -4 118
4 0 25 -29 47 -65 22 -35 43 -64 48 -65 4 0 7 38 7 84 0 58 4 86 13 89 6 3 -1
6 -17 6 -23 1 -26 -1 -17 -13 7 -8 11 -36 9 -62 l-3 -48 -38 62 c-56 91 -72
85 -72 -28z"/>
<path d="M2700 899 c0 -19 1 -19 16 -4 9 9 21 14 28 12 15 -5 20 -135 5 -153
-9 -12 -6 -14 22 -14 22 0 29 3 21 9 -9 5 -12 29 -10 82 3 70 4 74 26 72 12
-2 22 2 22 7 0 6 -29 10 -65 10 -59 0 -65 -2 -65 -21z"/>
<path d="M2868 908 c17 -17 16 -155 0 -161 -7 -3 3 -6 22 -6 26 -1 31 2 22 11
-7 7 -12 25 -12 40 0 25 3 28 36 28 36 0 36 0 32 -40 -3 -39 -3 -40 27 -39 16
0 24 3 18 6 -9 3 -13 30 -13 83 0 53 4 80 13 83 6 3 -2 6 -20 6 -31 1 -31 0
-26 -39 6 -39 5 -40 -26 -40 -37 0 -49 20 -33 56 11 23 10 24 -20 24 -25 0
-29 -3 -20 -12z"/>
<path d="M3072 838 c42 -122 39 -117 50 -84 7 19 7 30 0 35 -13 8 -43 111 -36
122 3 5 -6 9 -19 9 l-24 0 29 -82z"/>
<path d="M3105 903 c4 -10 13 -38 20 -63 18 -70 37 -112 45 -103 4 4 15 40 25
78 10 39 22 78 27 88 7 13 4 17 -13 17 -16 0 -19 -3 -11 -12 7 -9 4 -30 -8
-68 -16 -52 -17 -54 -25 -27 -7 27 -4 56 10 90 6 15 1 17 -35 17 -36 0 -41 -2
-35 -17z m55 -7 c0 -8 -4 -18 -10 -21 -5 -3 -10 3 -10 14 0 12 5 21 10 21 6 0
10 -6 10 -14z"/>
<path d="M3258 913 c8 -3 12 -30 12 -83 0 -53 -4 -80 -12 -83 -7 -3 15 -6 50
-6 58 -1 62 0 62 22 -1 20 -2 20 -11 5 -5 -10 -21 -18 -34 -18 -22 0 -25 4
-25 36 0 33 2 36 25 32 19 -4 25 -1 25 12 0 13 -6 16 -25 12 -22 -4 -25 -1
-25 28 0 30 2 32 30 28 20 -3 30 0 30 9 0 9 -16 13 -57 12 -32 0 -52 -3 -45
-6z"/>
<path d="M3410 901 c-13 -25 -4 -48 33 -88 18 -19 27 -38 24 -47 -9 -23 -42
-19 -56 7 -11 22 -11 22 -5 -3 8 -30 4 -26 30 -34 28 -9 54 17 54 53 0 17 -11
38 -30 56 -46 44 -35 91 11 49 16 -15 17 -14 12 5 -7 28 -58 29 -73 2z"/>
<path d="M3688 913 c8 -3 12 -30 12 -83 0 -53 -4 -80 -12 -83 -7 -3 14 -6 48
-6 47 -1 61 2 61 14 0 11 -4 12 -13 4 -7 -6 -23 -9 -36 -7 -18 2 -23 9 -23 33
0 32 31 48 46 23 6 -8 8 -1 8 22 0 19 -3 29 -6 23 -2 -7 -16 -13 -29 -13 -20
0 -24 5 -24 30 0 17 6 31 13 31 23 2 42 -3 49 -14 5 -7 8 -3 8 11 0 20 -4 22
-57 21 -32 0 -52 -3 -45 -6z"/>
<path d="M3998 908 c16 -16 16 -140 0 -156 -9 -9 -5 -12 17 -12 20 0 26 3 17
9 -9 5 -12 26 -10 67 l3 58 45 -69 45 -69 3 79 c2 43 8 85 14 92 8 10 4 13
-18 12 -16 0 -23 -3 -16 -6 7 -3 12 -25 12 -60 l0 -56 -40 61 c-29 45 -46 62
-62 62 -17 0 -19 -3 -10 -12z"/>
<path d="M4618 908 c16 -16 16 -140 0 -156 -9 -9 1 -12 45 -12 52 0 57 2 57
22 0 20 -1 21 -13 4 -7 -10 -22 -17 -33 -14 -16 3 -19 13 -22 72 -2 41 2 73 9
82 9 12 6 14 -22 14 -26 0 -30 -3 -21 -12z"/>
<path d="M4751 903 c45 -56 66 -145 37 -156 -7 -3 5 -5 27 -5 22 0 34 2 28 5
-21 8 -15 66 12 119 30 58 29 54 8 54 -13 0 -18 -9 -19 -31 -2 -46 -19 -57
-37 -23 -8 16 -12 35 -10 42 3 8 -6 12 -28 12 -29 0 -31 -2 -18 -17z"/>
<path d="M4911 893 c0 -28 0 -28 10 -5 5 13 15 22 21 20 19 -6 23 -148 6 -159
-8 -6 2 -8 27 -8 22 0 34 3 28 6 -20 7 -18 163 2 163 7 0 19 -8 24 -17 9 -16
10 -16 11 5 0 21 -4 22 -65 22 -64 0 -65 0 -64 -27z"/>
<path d="M5080 891 c10 -37 1 -134 -14 -143 -6 -4 17 -8 52 -8 58 0 62 2 62
23 -1 20 -2 20 -11 5 -5 -10 -21 -18 -34 -18 -22 0 -25 4 -25 36 0 35 1 36 30
32 23 -4 30 -1 30 12 0 13 -7 16 -30 12 -28 -4 -30 -2 -30 27 0 28 3 31 30 31
17 0 30 5 30 10 0 6 -22 10 -49 10 l-50 0 9 -29z"/>
<path d="M5248 910 c-10 -6 -22 -28 -28 -50 -20 -76 33 -144 95 -120 14 5 25
17 25 26 0 16 -1 16 -19 0 -41 -37 -86 7 -77 77 8 66 48 89 80 45 l16 -23 -2
25 c-3 21 -9 25 -38 27 -19 2 -43 -2 -52 -7z"/>
<path d="M5378 908 c7 -7 12 -40 12 -78 0 -38 -5 -71 -12 -78 -9 -9 -4 -12 22
-12 26 0 31 3 22 12 -7 7 -12 25 -12 40 0 25 3 28 35 28 33 0 35 -2 35 -34 0
-19 -6 -37 -12 -39 -7 -3 1 -6 17 -6 l30 -1 -5 64 c-3 36 -2 76 1 90 7 24 5
26 -24 26 -24 0 -28 -3 -19 -12 7 -7 12 -25 12 -40 0 -25 -3 -28 -35 -28 -32
0 -35 3 -35 28 0 15 5 33 12 40 9 9 4 12 -22 12 -26 0 -31 -3 -22 -12z"/>
<path d="M5555 830 c0 -74 3 -90 15 -90 12 0 14 10 12 44 -8 92 -1 95 48 20
l45 -69 3 85 c2 52 8 87 15 92 7 5 0 7 -18 7 -16 0 -24 -3 -17 -6 7 -3 12 -25
12 -61 l0 -57 -41 63 c-59 90 -74 85 -74 -28z"/>
<path d="M5735 830 c0 -83 1 -90 20 -90 19 0 20 7 20 90 0 83 -1 90 -20 90
-19 0 -20 -7 -20 -90z"/>
<path d="M5841 894 c-41 -52 -19 -151 34 -155 50 -5 65 1 65 24 -1 20 -2 20
-11 5 -5 -10 -21 -18 -35 -18 -56 0 -70 129 -17 153 22 10 28 8 45 -13 l20
-25 -3 25 c-3 21 -10 26 -40 28 -30 3 -41 -2 -58 -24z"/>
<path d="M6011 856 c-7 -35 -19 -76 -26 -90 -13 -25 -13 -26 13 -26 18 0 23 3
14 9 -22 13 -4 63 21 59 23 -3 43 -54 24 -62 -7 -2 3 -5 21 -5 28 -1 31 1 22
17 -5 9 -18 49 -29 87 -24 93 -43 97 -60 11z m33 -8 c5 -21 3 -28 -9 -28 -15
0 -22 40 -8 53 8 9 9 8 17 -25z"/>
<path d="M6138 908 c17 -17 16 -155 0 -161 -7 -3 13 -6 45 -6 31 -1 57 3 57 8
0 5 3 18 6 28 5 13 2 12 -10 -4 -10 -13 -26 -23 -37 -23 -17 0 -19 7 -19 79 0
54 4 81 13 84 6 3 -6 6 -27 6 -31 1 -37 -2 -28 -11z"/>
<path d="M6388 913 c8 -3 12 -28 12 -74 0 -56 4 -73 21 -90 14 -14 27 -18 42
-13 41 12 47 24 47 93 0 39 5 72 12 79 9 9 5 12 -17 11 -17 0 -24 -3 -17 -6 8
-3 12 -28 12 -73 0 -74 -13 -97 -50 -85 -20 6 -21 13 -18 86 l3 79 -30 -1
c-16 0 -24 -3 -17 -6z"/>
<path d="M6560 906 c7 -10 10 -42 8 -91 -3 -70 -2 -75 17 -74 11 0 14 3 8 6
-9 3 -13 27 -13 71 l0 67 45 -70 c25 -38 49 -71 54 -73 5 -1 9 34 10 79 1 45
4 86 7 91 3 4 -5 8 -17 8 -18 0 -20 -3 -11 -12 14 -14 17 -98 3 -98 -5 0 -24
25 -42 55 -25 42 -39 55 -57 55 -20 0 -22 -3 -12 -14z"/>
<path d="M6740 850 c3 -39 2 -79 -2 -90 -6 -17 -3 -20 25 -19 18 0 26 3 20 6
-17 6 -18 144 -1 161 9 9 5 12 -18 12 l-29 0 5 -70z"/>
<path d="M6824 898 c8 -13 24 -57 36 -97 25 -83 28 -82 55 19 10 36 25 73 33
83 14 16 13 17 -11 17 -20 0 -24 -4 -20 -19 6 -23 -15 -103 -26 -97 -5 3 -14
26 -21 52 -11 39 -11 47 1 55 10 6 2 9 -24 9 -36 0 -37 -1 -23 -22z"/>
<path d="M6990 901 c14 -27 13 -134 -2 -149 -9 -9 0 -12 44 -12 40 0 57 4 62
15 3 8 1 15 -4 15 -6 0 -10 -5 -10 -11 0 -6 -12 -9 -27 -7 -24 3 -29 8 -31 37
-3 32 -2 33 27 29 24 -4 31 -1 31 12 0 13 -7 16 -31 12 -29 -4 -30 -3 -27 29
3 30 6 34 28 30 14 -1 28 -8 32 -15 5 -6 8 -2 8 12 0 20 -5 22 -55 22 -52 0
-55 -1 -45 -19z"/>
<path d="M7301 898 c-11 -31 -4 -52 30 -82 32 -29 37 -53 13 -63 -11 -4 -24 3
-36 18 -15 18 -18 19 -14 6 3 -10 6 -22 6 -27 0 -4 10 -10 22 -13 62 -17 82
64 28 111 -16 15 -30 34 -30 44 0 23 36 24 44 2 4 -9 9 -15 11 -12 3 3 3 13
-1 22 -10 25 -63 21 -73 -6z"/>
<path d="M7425 830 c0 -83 1 -90 20 -90 19 0 20 7 20 90 0 83 -1 90 -20 90
-19 0 -20 -7 -20 -90z"/>
<path d="M7691 861 c31 -63 37 -106 17 -114 -7 -3 3 -6 22 -6 26 -1 31 2 22
11 -18 18 -14 48 17 111 l28 57 -26 0 c-18 0 -22 -3 -14 -11 12 -12 -2 -69
-17 -69 -12 0 -33 57 -25 69 4 7 -5 11 -24 11 l-30 0 30 -59z"/>
<path d="M1623 173 c9 -2 23 -2 30 0 6 3 -1 5 -18 5 -16 0 -22 -2 -12 -5z"/>
<path d="M1723 153 c9 -2 25 -2 35 0 9 3 1 5 -18 5 -19 0 -27 -2 -17 -5z"/>
<path d="M1733 133 c9 -2 23 -2 30 0 6 3 -1 5 -18 5 -16 0 -22 -2 -12 -5z"/>
</g>
</svg>
